<svg width="198" height="203" viewBox="0 0 198 203" fill="none" xmlns="http://www.w3.org/2000/svg">
<path d="M63.0859 67.8048L44.8329 71.9273V79.2609H77.9956C79.3869 60.6576 94.3174 45.7418 112.965 44.3538V11.2697H105.614L101.502 29.4794C101.274 30.4738 100.547 31.261 99.5918 31.5718C96.8092 32.4626 94.1097 33.5813 91.514 34.9071C90.6211 35.3629 89.5413 35.3215 88.6691 34.7828L72.825 24.8182L58.3929 39.2161L68.3811 55.002C68.921 55.8514 68.9626 56.9287 68.5057 57.8402C67.156 60.4505 66.0139 63.1643 65.1417 65.8989C64.8717 66.8725 64.0619 67.5976 63.0859 67.8048ZM96.83 79.2609H83.7477C85.1182 63.8065 97.4945 51.4388 112.986 50.0923V63.1436C104.659 64.3866 98.0759 70.9537 96.83 79.2609ZM129.328 82.1198C129.328 89.5363 123.285 95.5855 115.831 95.5855C108.396 95.5855 102.333 89.557 102.333 82.1198C102.333 74.6826 108.376 68.6334 115.831 68.6334C123.285 68.6334 129.328 74.6826 129.328 82.1198ZM60.1164 96.9113C56.877 98.0922 54.5512 101.179 54.5512 104.825C54.5512 109.465 58.3306 113.257 62.9821 113.257C67.6336 113.257 71.4337 109.486 71.4337 104.825C71.4337 101.2 69.1079 98.0922 65.8477 96.9113V84.958H77.9125V108.14C77.9125 108.761 78.1202 109.383 78.5147 109.88L85.9696 119.513C85.1182 120.818 84.6406 122.372 84.6406 124.05C84.6406 128.69 88.4199 132.481 93.0922 132.481C97.7437 132.481 101.523 128.711 101.523 124.05C101.523 119.409 97.7437 115.639 93.0922 115.639C92.1993 115.639 91.3271 115.784 90.5173 116.053L83.6646 107.166V84.9787H96.8923C98.2836 94.1975 106.278 101.303 115.893 101.303C126.504 101.303 135.122 92.7059 135.122 82.1405C135.122 72.5281 127.999 64.5523 118.758 63.1643V49.968H140.957L149.865 56.8044C149.595 57.6123 149.45 58.4824 149.45 59.3732C149.45 64.0137 153.229 67.7841 157.881 67.7841C162.532 67.7841 166.332 64.0137 166.332 59.3732C166.332 54.7327 162.553 50.9416 157.881 50.9416C156.22 50.9416 154.662 51.4181 153.354 52.2675L143.677 44.8303C143.179 44.4574 142.556 44.2295 141.933 44.2295H118.696V31.0332H130.678C131.862 34.2856 134.956 36.6059 138.61 36.6059C143.262 36.6059 147.062 32.8355 147.062 28.1743C147.062 23.5338 143.283 19.7634 138.61 19.7634C134.976 19.7634 131.862 22.0837 130.678 25.3154H118.696V11.2697H135.018C161.183 11.2697 180.723 38.2632 180.723 62.4185V73.7504C180.723 74.1233 180.785 74.4755 180.931 74.8276L197.647 116.053C198.519 118.208 197.647 120.632 195.591 121.73L182.197 128.939C181.263 129.436 180.702 130.389 180.702 131.446V158.998C180.702 167.389 173.87 174.204 165.46 174.204H131.135C122.995 174.204 116.37 167.596 116.37 159.475V125.086C116.37 123.511 115.083 122.227 113.505 122.227C111.927 122.227 110.639 123.511 110.639 125.086V159.475C110.639 167.409 115.187 174.308 121.832 177.685V203H82.8963V180.813L89.7697 171.946C90.5796 172.215 91.4517 172.36 92.3446 172.36C96.9961 172.36 100.796 168.59 100.796 163.95C100.796 159.309 97.0169 155.518 92.3446 155.518C87.6724 155.518 83.893 159.288 83.893 163.95C83.893 165.607 84.3706 167.161 85.222 168.466L77.7672 178.12C77.3934 178.617 77.165 179.238 77.165 179.86V203.021H67.592V140.291C67.592 139.587 67.3221 138.903 66.8445 138.365C53.866 124.153 46.3281 105.737 44.9575 84.9787H60.1164V96.9113ZM93.3206 27.8014L74.6316 11.2904H52.6408C51.4572 14.5222 48.3631 16.8424 44.7083 16.8424C40.0569 16.8424 36.2567 13.072 36.2567 8.43157C36.2567 3.7911 40.0569 0 44.7083 0C48.3631 0 51.4572 2.34095 52.6408 5.57271H75.7114C76.4174 5.57271 77.0819 5.84202 77.6011 6.29779L96.9961 23.451L96.2693 26.6827C95.2933 27.0142 94.2966 27.3871 93.3206 27.8014ZM8.4516 36.1708C12.0856 36.1708 15.2004 38.4911 16.3841 41.7435H39.4547C40.1607 41.7435 40.8252 42.0129 41.3443 42.4686L61.1547 60.2226C60.8432 61.0098 60.5317 61.797 60.2618 62.5842L56.254 63.4958L38.3748 47.4406H16.3841C15.2004 50.6723 12.1064 52.9925 8.4516 52.9925C3.80011 52.9925 0 49.2222 0 44.5817C0 39.9619 3.80011 36.1708 8.4516 36.1708ZM42.3411 25.274H64.2903L58.5798 30.971H42.3411C41.1574 34.2235 38.0634 36.5437 34.4086 36.5437C29.7571 36.5437 25.957 32.7733 25.957 28.1122C25.957 23.4717 29.7363 19.7013 34.4086 19.7013C38.0426 19.722 41.1574 22.0422 42.3411 25.274ZM19.2082 73.6882C22.8422 73.6882 25.957 76.0085 27.1406 79.2609H39.1224V82.1198V82.2234C39.1639 83.1556 39.2055 84.0671 39.2677 84.958H27.1406C25.957 88.1897 22.8629 90.5099 19.2082 90.5099C14.5567 90.5099 10.7566 86.7396 10.7566 82.0991C10.7774 77.4586 14.5567 73.6882 19.2082 73.6882Z" fill="white"/>
</svg>
